
            <svg id="trend-chart" width="660" height="400" title="Stack Overflow Trends Chart" version="1.1" xmlns="http://www.w3.org/2000/svg"><g></g><g class="chart-area" transform="translate(100, 20)"><g transform="translate(0,300)" fill="none" font-size="10" font-family="sans-serif" text-anchor="middle"><path class="domain" stroke="#000" d="M0.5,6V0.5H410.5V6"></path><g class="tick" opacity="1" transform="translate(39.435032182200764,0)"><line stroke="#000" y2="6" x1="0.5" x2="0.5"></line><text fill="#000" y="9" x="0.5" dy="0.71em" style="font-size: 12px;">2010</text></g><g class="tick" opacity="1" transform="translate(95.00502846886991,0)"><line stroke="#000" y2="6" x1="0.5" x2="0.5"></line><text fill="#000" y="9" x="0.5" dy="0.71em" style="font-size: 12px;">2012</text></g><g class="tick" opacity="1" transform="translate(150.65114803812352,0)"><line stroke="#000" y2="6" x1="0.5" x2="0.5"></line><text fill="#000" y="9" x="0.5" dy="0.71em" style="font-size: 12px;">2014</text></g><g class="tick" opacity="1" transform="translate(206.22114432479268,0)"><line stroke="#000" y2="6" x1="0.5" x2="0.5"></line><text fill="#000" y="9" x="0.5" dy="0.71em" style="font-size: 12px;">2016</text></g><g class="tick" opacity="1" transform="translate(261.8672638940463,0)"><line stroke="#000" y2="6" x1="0.5" x2="0.5"></line><text fill="#000" y="9" x="0.5" dy="0.71em" style="font-size: 12px;">2018</text></g><g class="tick" opacity="1" transform="translate(317.43726018071544,0)"><line stroke="#000" y2="6" x1="0.5" x2="0.5"></line><text fill="#000" y="9" x="0.5" dy="0.71em" style="font-size: 12px;">2020</text></g><g class="tick" opacity="1" transform="translate(373.083379749969,0)"><line stroke="#000" y2="6" x1="0.5" x2="0.5"></line><text fill="#000" y="9" x="0.5" dy="0.71em" style="font-size: 12px;">2022</text></g></g><g class="grid-lines" transform="translate(0,300)" fill="none" font-size="10" font-family="sans-serif" text-anchor="middle"><path class="domain" stroke="#000" d="M0.5,-300V0.5H410.5V-300"></path><g class="tick" opacity="1" transform="translate(39.435032182200764,0)"><line stroke="#000" y2="-300" x1="0.5" x2="0.5" style="stroke: #ccc; fill: none;"></line></g><g class="tick" opacity="1" transform="translate(95.00502846886991,0)"><line stroke="#000" y2="-300" x1="0.5" x2="0.5" style="stroke: #ccc; fill: none;"></line></g><g class="tick" opacity="1" transform="translate(150.65114803812352,0)"><line stroke="#000" y2="-300" x1="0.5" x2="0.5" style="stroke: #ccc; fill: none;"></line></g><g class="tick" opacity="1" transform="translate(206.22114432479268,0)"><line stroke="#000" y2="-300" x1="0.5" x2="0.5" style="stroke: #ccc; fill: none;"></line></g><g class="tick" opacity="1" transform="translate(261.8672638940463,0)"><line stroke="#000" y2="-300" x1="0.5" x2="0.5" style="stroke: #ccc; fill: none;"></line></g><g class="tick" opacity="1" transform="translate(317.43726018071544,0)"><line stroke="#000" y2="-300" x1="0.5" x2="0.5" style="stroke: #ccc; fill: none;"></line></g><g class="tick" opacity="1" transform="translate(373.083379749969,0)"><line stroke="#000" y2="-300" x1="0.5" x2="0.5" style="stroke: #ccc; fill: none;"></line></g></g><text x="205" y="360" class="axis-label x-axis-label" style="text-anchor: middle; font-weight: bold;">Year</text><g fill="none" font-size="10" font-family="sans-serif" text-anchor="end"><path class="domain" stroke="#000" d="M-6,300.5H0.5V0.5H-6"></path><g class="tick" opacity="1" transform="translate(0,300)"><line stroke="#000" x2="-6" y1="0.5" y2="0.5"></line><text fill="#000" x="-9" y="0.5" dy="0.32em" style="font-size: 12px;">0.00%</text></g><g class="tick" opacity="1" transform="translate(0,266.6666666666667)"><line stroke="#000" x2="-6" y1="0.5" y2="0.5"></line><text fill="#000" x="-9" y="0.5" dy="0.32em" style="font-size: 12px;">2.00%</text></g><g class="tick" opacity="1" transform="translate(0,233.33333333333331)"><line stroke="#000" x2="-6" y1="0.5" y2="0.5"></line><text fill="#000" x="-9" y="0.5" dy="0.32em" style="font-size: 12px;">4.00%</text></g><g class="tick" opacity="1" transform="translate(0,200)"><line stroke="#000" x2="-6" y1="0.5" y2="0.5"></line><text fill="#000" x="-9" y="0.5" dy="0.32em" style="font-size: 12px;">6.00%</text></g><g class="tick" opacity="1" transform="translate(0,166.66666666666666)"><line stroke="#000" x2="-6" y1="0.5" y2="0.5"></line><text fill="#000" x="-9" y="0.5" dy="0.32em" style="font-size: 12px;">8.00%</text></g><g class="tick" opacity="1" transform="translate(0,133.33333333333331)"><line stroke="#000" x2="-6" y1="0.5" y2="0.5"></line><text fill="#000" x="-9" y="0.5" dy="0.32em" style="font-size: 12px;">10.00%</text></g><g class="tick" opacity="1" transform="translate(0,100)"><line stroke="#000" x2="-6" y1="0.5" y2="0.5"></line><text fill="#000" x="-9" y="0.5" dy="0.32em" style="font-size: 12px;">12.00%</text></g><g class="tick" opacity="1" transform="translate(0,66.66666666666663)"><line stroke="#000" x2="-6" y1="0.5" y2="0.5"></line><text fill="#000" x="-9" y="0.5" dy="0.32em" style="font-size: 12px;">14.00%</text></g><g class="tick" opacity="1" transform="translate(0,33.333333333333314)"><line stroke="#000" x2="-6" y1="0.5" y2="0.5"></line><text fill="#000" x="-9" y="0.5" dy="0.32em" style="font-size: 12px;">16.00%</text></g><g class="tick" opacity="1" transform="translate(0,0)"><line stroke="#000" x2="-6" y1="0.5" y2="0.5"></line><text fill="#000" x="-9" y="0.5" dy="0.32em" style="font-size: 12px;">18.00%</text></g></g><g class="grid-lines" fill="none" font-size="10" font-family="sans-serif" text-anchor="end"><path class="domain" stroke="#000" d="M410,300.5H0.5V0.5H410"></path><g class="tick" opacity="1" transform="translate(0,300)"><line stroke="#000" x2="410" y1="0.5" y2="0.5" style="stroke: #ccc; fill: none;"></line></g><g class="tick" opacity="1" transform="translate(0,266.6666666666667)"><line stroke="#000" x2="410" y1="0.5" y2="0.5" style="stroke: #ccc; fill: none;"></line></g><g class="tick" opacity="1" transform="translate(0,233.33333333333331)"><line stroke="#000" x2="410" y1="0.5" y2="0.5" style="stroke: #ccc; fill: none;"></line></g><g class="tick" opacity="1" transform="translate(0,200)"><line stroke="#000" x2="410" y1="0.5" y2="0.5" style="stroke: #ccc; fill: none;"></line></g><g class="tick" opacity="1" transform="translate(0,166.66666666666666)"><line stroke="#000" x2="410" y1="0.5" y2="0.5" style="stroke: #ccc; fill: none;"></line></g><g class="tick" opacity="1" transform="translate(0,133.33333333333331)"><line stroke="#000" x2="410" y1="0.5" y2="0.5" style="stroke: #ccc; fill: none;"></line></g><g class="tick" opacity="1" transform="translate(0,100)"><line stroke="#000" x2="410" y1="0.5" y2="0.5" style="stroke: #ccc; fill: none;"></line></g><g class="tick" opacity="1" transform="translate(0,66.66666666666663)"><line stroke="#000" x2="410" y1="0.5" y2="0.5" style="stroke: #ccc; fill: none;"></line></g><g class="tick" opacity="1" transform="translate(0,33.333333333333314)"><line stroke="#000" x2="410" y1="0.5" y2="0.5" style="stroke: #ccc; fill: none;"></line></g><g class="tick" opacity="1" transform="translate(0,0)"><line stroke="#000" x2="410" y1="0.5" y2="0.5" style="stroke: #ccc; fill: none;"></line></g></g><g class="lines"><path class="line" d="M2.3598217601188267,299.2745211839833L4.643520237653175,300L7.006513801213021,299.86681583295L9.29021227874737,299.85996751246665L11.650034038866195,299.14824751928336L14.009855798985022,299.13584514345L16.141307711350414,299.6700649972L18.49795766802822,299.0498360967333L20.781656145562568,299.8691784406167L23.1414779056814,299.7017525023L25.425176383215746,297.39607745108333L27.784998143334573,297.5778190064L30.1448199034534,292.9542948168167L32.42851838098775,296.6139745445167L34.791511944547594,295.8833679305667L37.075210422081945,296.4321711130833L39.435032182200764,296.4820885915L41.79485394231959,295.4216578102167L43.92630585468498,295.5254246018L46.2829558113628,294.62744703L48.56665428889714,295.50380074398333L50.92647604901597,294.69127982385L53.21017452655032,293.56093894223335L55.569996286669145,292.5314838859667L57.92981804678797,293.5219649307833L60.213516524322316,294.36598953233334L62.57651008788217,294.18826173561666L64.86020856541651,294.61625745395L67.22003032553533,294.76961080863333L69.57985208565415,293.4787451647667L71.71130399801956,292.9814757528333L74.06795395469737,291.64929861126666L76.3516524322317,292.8753487065333L78.71147419235054,292.49584984925L80.99517266988488,292.4479609494667L83.35499443000371,290.8295931844833L85.71481619012253,289.9428120686333L87.99851466765689,289.7521338702L90.36150823121673,290.6851488070667L92.64520670875109,290.0874371989167L95.00502846886991,290.05457014123334L97.36485022898874,289.0112563661833L99.57242542393861,288.8801232202667L101.92907538061641,289.0907957485333L104.21277385815077,289.11676441656664L106.57259561826959,287.53992219175L108.85629409580393,286.79507803661664L111.21611585592275,287.10509348808336L113.57593761604159,286.5946302426167L115.85963609357594,285.81593630495L118.22262965713578,284.7552336586333L120.50632813467014,284.95618209216667L122.86614989478895,283.9516269876833L125.2259716549078,281.84067163198335L127.35742356727317,282.13581421248335L129.714073523951,282.0300993388L131.99777200148534,282.0731070390833L134.35759376160416,281.18067401618333L136.6412922391385,281.3379270743667L139.00111399925734,281.11674486208335L141.36093575937616,282.68258774223335L143.64463423691052,280.9941680235833L146.00762780047035,279.1980837484333L148.2913262780047,280.68111982575L150.65114803812352,279.1666666666667L153.01096979824234,276.62482895128335L155.14242171060775,277.3804673302167L157.49907166728556,276.40489851253335L159.7827701448199,275.41316755111666L162.1425919049387,275.20066048805L164.42629038247307,275.0475149942667L166.78611214259192,274.62456071085L169.14593390271074,276.15173848465L171.42963238024507,273.12674457481666L173.79262594380492,272.7638221335667L176.07632442133928,274.5307036312L178.4361461814581,272.87842737368334L180.79596794157692,270.4382794360667L182.9274198539423,268.50806052115L185.2840698106201,270.5815194592167L187.56776828815447,269.06528310693335L189.92759004827332,269.34960395756667L192.21128852580765,265.80161327733333L194.57111028592647,267.67698079126666L196.9309320460453,268.54793464771666L199.21463052357964,266.8393184759167L201.5776240871395,266.65894141433336L203.86132256467383,269.04130293363335L206.22114432479268,267.1907243278667L208.5809660849115,268.00052812065L210.7885412798614,266.3091653077L213.14519123653918,264.7401056942333L215.42888971407353,266.2728428469L217.78871147419235,264.75704995885L220.07240995172668,264.38177412053335L222.4322317118455,264.9768919699667L224.79205347196435,267.62249000713336L227.0757519494987,263.64558187235L229.43874551305854,265.8117195004833L231.72244399059292,267.335109208L234.08226575071174,266.8144964642833L236.44208751083053,264.6985100906833L238.57353942319594,261.57552859746664L240.93018937987372,259.82493737666664L243.2138878574081,261.0936369329L245.57370961752693,258.00248244436665L247.85740809506126,257.11844974485L250.2172298551801,256.65510676303336L252.57705161529893,256.16768457353334L254.86075009283326,255.04403546593335L257.2237436563931,255.13970265855L259.5074421339275,256.9791558042833L261.8672638940463,255.90373190141668L264.22708565416514,250.48872983068333L266.3585375665305,250.25675504498332L268.71518752320833,251.00234724261668L270.9988860007427,252.4217538482L273.3587077608615,251.032436778L275.64240623839584,253.46330638771667L278.0022279985147,256.2576797051L280.3620497586335,256.06026555799997L282.64574823616783,254.13810170706665L285.00874179972766,252.29675595359998L287.2924402772621,256.56798893296667L289.65226203738086,255.38321539653333L292.01208379749966,250.97495866471667L294.1435357098651,252.88307696185L296.50018566654285,249.37074279016667L298.78388414407726,252.06714621868332L301.14370590419605,250.92804854676666L303.4274043817304,253.03320240373333L305.78722614184926,251.28985067485002L308.14704790196805,251.36174746673333L310.4307463795024,251.50702273925L312.79373994306223,251.26492668115L315.0774384205966,252.42096685893333L317.43726018071544,252.35401518601665L319.79708194083423,245.70902548225L322.00465713578416,244.71623737783332L324.3613070924619,243.16998505298335L326.6450055699963,245.75554772808334L329.0048273301151,246.7180558416L331.2885258076494,249.885600713L333.6483475677683,248.95977430545L336.0081693278871,243.42294738596667L338.2918678054215,239.77536102693335L340.6548613689813,240.08135559383334L342.93855984651566,245.48028138561665L345.2983816066345,247.77068223193334L347.6582033667533,244.64623504809998L349.7896552791187,241.44064612223332L352.1463052357965,240.69255077668333L354.43000371333085,241.31951255086668L356.7898254734497,244.06001760615L359.073523950984,245.11266561888334L361.43334571110285,244.4164067434L363.7931674712217,245.2184099854333L366.076865948756,240.98918747738333L368.4398595123159,243.1906329421L370.72355798985024,246.98847849L373.083379749969,245.93393362983335L375.4432015100879,242.27713461103332L377.57465342245325,239.13255757181668L379.9313033791311,238.77616718906665L382.2150018566654,240.36829233204998L384.5748236167843,245.336886373L386.85852209431863,247.77686136313332L389.2183438544374,246.92596563898334L391.57816561455627,246.64686879655L393.8618640920906,241.9461684984L396.22485765565045,243.48045039628332L398.5085561331848,248.52666811466668L400.8683778933036,247.37520887304998L403.22819965342245,240.8894231516L405.35965156578783,241.81261963970002L407.71630152246564,240.92515820958334L410,247.57088788236666" data-legend="r" style="stroke: rgb(31, 119, 180); fill: none;"></path><path class="line" d="M2.3598217601188267,235.19055910235L4.643520237653175,241.2884062007L7.006513801213021,240.20030898728334L9.29021227874737,238.8058029463L11.650034038866195,232.9244921426L14.009855798985022,239.60517724776668L16.141307711350414,236.98241446436668L18.49795766802822,239.03114953996666L20.781656145562568,234.916274202L23.1414779056814,237.72592247951667L25.425176383215746,239.69315376685L27.784998143334573,241.6615130901L30.1448199034534,240.41784095086666L32.42851838098775,234.36676685591667L34.791511944547594,232.11936481243333L37.075210422081945,229.35698803886666L39.435032182200764,227.20917351536667L41.79485394231959,230.16151790808334L43.92630585468498,233.39642806558334L46.2829558113628,239.3237298949L48.56665428889714,235.08005822416666L50.92647604901597,233.61083461528332L53.21017452655032,228.56234835045L55.569996286669145,234.2876144029L57.92981804678797,238.26652173436668L60.213516524322316,229.68017776093333L62.57651008788217,237.20428862878333L64.86020856541651,240.29598512831666L67.22003032553533,239.20985413726666L69.57985208565415,239.10120096401667L71.71130399801956,237.69812362581666L74.06795395469737,241.49245980786668L76.3516524322317,241.21326456206668L78.71147419235054,241.35582884439998L80.99517266988488,239.03353905555L83.35499443000371,240.22021495685L85.71481619012253,242.26976927628334L87.99851466765689,240.26485775301666L90.36150823121673,240.4372139065L92.64520670875109,241.60628721248332L95.00502846886991,239.44818719318334L97.36485022898874,239.31185865204998L99.57242542393861,237.03745444983332L101.92907538061641,236.16816798096664L104.21277385815077,236.61822755178332L106.57259561826959,232.52605347205L108.85629409580393,232.42812294043335L111.21611585592275,230.54765426481666L113.57593761604159,233.45508503596665L115.85963609357594,231.37465631353334L118.22262965713578,227.5618574812833L120.50632813467014,228.79589975414999L122.86614989478895,230.09852657406668L125.2259716549078,226.23321139388332L127.35742356727317,226.45523513445L129.714073523951,222.46991632980001L131.99777200148534,221.41608338728335L134.35759376160416,219.51396491586667L136.6412922391385,218.2785639996L139.00111399925734,221.77500626155L141.36093575937616,219.47251304126667L143.64463423691052,213.78619486306667L146.00762780047035,209.83297536901665L148.2913262780047,214.40874085523333L150.65114803812352,212.73098791756667L153.01096979824234,211.76922444809998L155.14242171060775,207.84036010166665L157.49907166728556,207.22776146555L159.7827701448199,212.06176380231665L162.1425919049387,208.02414340371666L164.42629038247307,206.1270632509L166.78611214259192,206.44606074066667L169.14593390271074,211.38605246011667L171.42963238024507,207.0953169586333L173.79262594380492,203.68086414156667L176.07632442133928,202.45594470883333L178.4361461814581,202.15596775760002L180.79596794157692,198.38906575389998L182.9274198539423,197.50081383665L185.2840698106201,198.82308377188332L187.56776828815447,198.6571438392L189.92759004827332,194.53761688256665L192.21128852580765,194.21780102913334L194.57111028592647,196.15547622088334L196.9309320460453,196.43486588953334L199.21463052357964,187.56005868L201.5776240871395,184.24368837463334L203.86132256467383,186.55619310281668L206.22114432479268,185.44589438680003L208.5809660849115,181.86869065334997L210.7885412798614,182.83659986861664L213.14519123653918,183.4184493166833L215.42888971407353,183.72609180463334L217.78871147419235,182.24364905980002L220.07240995172668,178.0896076574L222.4322317118455,180.54370528375L224.79205347196435,179.02584902661664L227.0757519494987,170.37815892623334L229.43874551305854,163.86167146975L231.72244399059292,164.76589988715L234.08226575071174,164.13374786638335L236.44208751083053,158.13087597288333L238.57353942319594,157.0753306709333L240.93018937987372,152.64431640195L243.2138878574081,154.02895600658331L245.57370961752693,148.8901735633L247.85740809506126,141.6248904075833L250.2172298551801,143.73250117213334L252.57705161529893,139.6485105322333L254.86075009283326,132.43955887331666L257.2237436563931,131.0215632349L259.5074421339275,127.04763228940001L261.8672638940463,129.56025579618333L264.22708565416514,120.75137396801662L266.3585375665305,125.72812222904997L268.71518752320833,124.10195161198331L270.9988860007427,123.46469394446669L273.3587077608615,116.54913577658331L275.64240623839584,110.60918264913332L278.0022279985147,111.07925455663332L280.3620497586335,112.78208513588334L282.64574823616783,109.12815004371669L285.00874179972766,96.83498855123332L287.2924402772621,99.23083020731664L289.65226203738086,108.51680316551665L292.01208379749966,97.94201051165001L294.1435357098651,91.41732911716664L296.50018566654285,81.83693302395L298.78388414407726,89.08427020275002L301.14370590419605,85.90292141768333L303.4274043817304,79.24374167703331L305.78722614184926,77.91181600416667L308.14704790196805,91.70220287404996L310.4307463795024,73.96872191901664L312.79373994306223,65.97604446933332L315.0774384205966,69.70576626816663L317.43726018071544,70.66920533304997L319.79708194083423,67.43564351833336L322.00465713578416,55.35396079703335L324.3613070924619,45.77161466541665L326.6450055699963,34.38643075839997L329.0048273301151,34.30619710299999L331.2885258076494,33.47097790581665L333.6483475677683,38.52957811745L336.0081693278871,41.41644947458332L338.2918678054215,29.268437629999994L340.6548613689813,23.50328167503335L342.93855984651566,21.07827608575002L345.2983816066345,24.586066402766676L347.6582033667533,26.085253757033286L349.7896552791187,29.52233494954993L352.1463052357965,19.461052673233326L354.43000371333085,18.17774894258332L356.7898254734497,27.065652093283234L359.073523950984,20.677215241416604L361.43334571110285,26.53589147479994L363.7931674712217,32.79225978273337L366.076865948756,20.059152189650092L368.4398595123159,17.053246793549988L370.72355798985024,14.671960333433333L373.083379749969,22.299580017499977L375.4432015100879,15.188660611383341L377.57465342245325,17.321724035049954L379.9313033791311,7.9283692862500175L382.2150018566654,18.788663501666633L384.5748236167843,26.144951973749983L386.85852209431863,20.689310439633346L389.2183438544374,33.24667185656665L391.57816561455627,34.11247531920003L393.8618640920906,18.434430831483326L396.22485765565045,20.94694691758332L398.5085561331848,29.76848835203333L400.8683778933036,47.09540311095L403.22819965342245,55.46609761476665L405.35965156578783,62.00273121396668L407.71630152246564,61.01879891088333L410,62.81083466045001" data-legend="python" style="stroke: rgb(255, 127, 14); fill: none;"></path></g></g><g transform="translate(20, 150)"><text transform="rotate(-90)" x="-50" y="0" dy="1em" class="axis-label y-axis-label" style="text-anchor: middle; font-weight: bold;">% of Stack Overflow questions that month</text></g><g class="legend" transform="translate(530, 30)" style="font-size: 12px;"><text class="legend-title" style="font-weight: bold;">Tag</text><g class="legend-items" transform="translate(0,20)"><text y="0em" x="1em">python</text><text y="1em" x="1em">r</text><circle cy="-0.25em" cx="0" r="0.4em" style="fill: rgb(255, 127, 14);"></circle><circle cy="0.75em" cx="0" r="0.4em" style="fill: rgb(31, 119, 180);"></circle></g><rect class="legend-box"></rect></g></svg>
        