
            <svg id="trend-chart" width="660" height="400" title="Stack Overflow Trends Chart" version="1.1" xmlns="http://www.w3.org/2000/svg"><g></g><g class="chart-area" transform="translate(100, 20)"><g transform="translate(0,300)" fill="none" font-size="10" font-family="sans-serif" text-anchor="middle"><path class="domain" stroke="#000" d="M0.5,6V0.5H410.5V6"></path><g class="tick" opacity="1" transform="translate(39.655915484192185,0)"><line stroke="#000" y2="6" x1="0.5" x2="0.5"></line><text fill="#000" y="9" x="0.5" dy="0.71em" style="font-size: 12px;">2010</text></g><g class="tick" opacity="1" transform="translate(95.53717015185462,0)"><line stroke="#000" y2="6" x1="0.5" x2="0.5"></line><text fill="#000" y="9" x="0.5" dy="0.71em" style="font-size: 12px;">2012</text></g><g class="tick" opacity="1" transform="translate(151.49497448344536,0)"><line stroke="#000" y2="6" x1="0.5" x2="0.5"></line><text fill="#000" y="9" x="0.5" dy="0.71em" style="font-size: 12px;">2014</text></g><g class="tick" opacity="1" transform="translate(207.37622915110782,0)"><line stroke="#000" y2="6" x1="0.5" x2="0.5"></line><text fill="#000" y="9" x="0.5" dy="0.71em" style="font-size: 12px;">2016</text></g><g class="tick" opacity="1" transform="translate(263.33403348269854,0)"><line stroke="#000" y2="6" x1="0.5" x2="0.5"></line><text fill="#000" y="9" x="0.5" dy="0.71em" style="font-size: 12px;">2018</text></g><g class="tick" opacity="1" transform="translate(319.21528815036095,0)"><line stroke="#000" y2="6" x1="0.5" x2="0.5"></line><text fill="#000" y="9" x="0.5" dy="0.71em" style="font-size: 12px;">2020</text></g><g class="tick" opacity="1" transform="translate(375.1730924819517,0)"><line stroke="#000" y2="6" x1="0.5" x2="0.5"></line><text fill="#000" y="9" x="0.5" dy="0.71em" style="font-size: 12px;">2022</text></g></g><g class="grid-lines" transform="translate(0,300)" fill="none" font-size="10" font-family="sans-serif" text-anchor="middle"><path class="domain" stroke="#000" d="M0.5,-300V0.5H410.5V-300"></path><g class="tick" opacity="1" transform="translate(39.655915484192185,0)"><line stroke="#000" y2="-300" x1="0.5" x2="0.5" style="stroke: #ccc; fill: none;"></line></g><g class="tick" opacity="1" transform="translate(95.53717015185462,0)"><line stroke="#000" y2="-300" x1="0.5" x2="0.5" style="stroke: #ccc; fill: none;"></line></g><g class="tick" opacity="1" transform="translate(151.49497448344536,0)"><line stroke="#000" y2="-300" x1="0.5" x2="0.5" style="stroke: #ccc; fill: none;"></line></g><g class="tick" opacity="1" transform="translate(207.37622915110782,0)"><line stroke="#000" y2="-300" x1="0.5" x2="0.5" style="stroke: #ccc; fill: none;"></line></g><g class="tick" opacity="1" transform="translate(263.33403348269854,0)"><line stroke="#000" y2="-300" x1="0.5" x2="0.5" style="stroke: #ccc; fill: none;"></line></g><g class="tick" opacity="1" transform="translate(319.21528815036095,0)"><line stroke="#000" y2="-300" x1="0.5" x2="0.5" style="stroke: #ccc; fill: none;"></line></g><g class="tick" opacity="1" transform="translate(375.1730924819517,0)"><line stroke="#000" y2="-300" x1="0.5" x2="0.5" style="stroke: #ccc; fill: none;"></line></g></g><text x="205" y="360" class="axis-label x-axis-label" style="text-anchor: middle; font-weight: bold;">Year</text><g fill="none" font-size="10" font-family="sans-serif" text-anchor="end"><path class="domain" stroke="#000" d="M-6,300.5H0.5V0.5H-6"></path><g class="tick" opacity="1" transform="translate(0,300)"><line stroke="#000" x2="-6" y1="0.5" y2="0.5"></line><text fill="#000" x="-9" y="0.5" dy="0.32em" style="font-size: 12px;">0.00%</text></g><g class="tick" opacity="1" transform="translate(0,262.5)"><line stroke="#000" x2="-6" y1="0.5" y2="0.5"></line><text fill="#000" x="-9" y="0.5" dy="0.32em" style="font-size: 12px;">0.50%</text></g><g class="tick" opacity="1" transform="translate(0,225)"><line stroke="#000" x2="-6" y1="0.5" y2="0.5"></line><text fill="#000" x="-9" y="0.5" dy="0.32em" style="font-size: 12px;">1.00%</text></g><g class="tick" opacity="1" transform="translate(0,187.5)"><line stroke="#000" x2="-6" y1="0.5" y2="0.5"></line><text fill="#000" x="-9" y="0.5" dy="0.32em" style="font-size: 12px;">1.50%</text></g><g class="tick" opacity="1" transform="translate(0,150)"><line stroke="#000" x2="-6" y1="0.5" y2="0.5"></line><text fill="#000" x="-9" y="0.5" dy="0.32em" style="font-size: 12px;">2.00%</text></g><g class="tick" opacity="1" transform="translate(0,112.5)"><line stroke="#000" x2="-6" y1="0.5" y2="0.5"></line><text fill="#000" x="-9" y="0.5" dy="0.32em" style="font-size: 12px;">2.50%</text></g><g class="tick" opacity="1" transform="translate(0,75)"><line stroke="#000" x2="-6" y1="0.5" y2="0.5"></line><text fill="#000" x="-9" y="0.5" dy="0.32em" style="font-size: 12px;">3.00%</text></g><g class="tick" opacity="1" transform="translate(0,37.49999999999994)"><line stroke="#000" x2="-6" y1="0.5" y2="0.5"></line><text fill="#000" x="-9" y="0.5" dy="0.32em" style="font-size: 12px;">3.50%</text></g><g class="tick" opacity="1" transform="translate(0,0)"><line stroke="#000" x2="-6" y1="0.5" y2="0.5"></line><text fill="#000" x="-9" y="0.5" dy="0.32em" style="font-size: 12px;">4.00%</text></g></g><g class="grid-lines" fill="none" font-size="10" font-family="sans-serif" text-anchor="end"><path class="domain" stroke="#000" d="M410,300.5H0.5V0.5H410"></path><g class="tick" opacity="1" transform="translate(0,300)"><line stroke="#000" x2="410" y1="0.5" y2="0.5" style="stroke: #ccc; fill: none;"></line></g><g class="tick" opacity="1" transform="translate(0,262.5)"><line stroke="#000" x2="410" y1="0.5" y2="0.5" style="stroke: #ccc; fill: none;"></line></g><g class="tick" opacity="1" transform="translate(0,225)"><line stroke="#000" x2="410" y1="0.5" y2="0.5" style="stroke: #ccc; fill: none;"></line></g><g class="tick" opacity="1" transform="translate(0,187.5)"><line stroke="#000" x2="410" y1="0.5" y2="0.5" style="stroke: #ccc; fill: none;"></line></g><g class="tick" opacity="1" transform="translate(0,150)"><line stroke="#000" x2="410" y1="0.5" y2="0.5" style="stroke: #ccc; fill: none;"></line></g><g class="tick" opacity="1" transform="translate(0,112.5)"><line stroke="#000" x2="410" y1="0.5" y2="0.5" style="stroke: #ccc; fill: none;"></line></g><g class="tick" opacity="1" transform="translate(0,75)"><line stroke="#000" x2="410" y1="0.5" y2="0.5" style="stroke: #ccc; fill: none;"></line></g><g class="tick" opacity="1" transform="translate(0,37.49999999999994)"><line stroke="#000" x2="410" y1="0.5" y2="0.5" style="stroke: #ccc; fill: none;"></line></g><g class="tick" opacity="1" transform="translate(0,0)"><line stroke="#000" x2="410" y1="0.5" y2="0.5" style="stroke: #ccc; fill: none;"></line></g></g><g class="lines"><path class="line" d="M2.3730395817774457,300L4.669529499626587,300L7.045758650734379,300L9.342248568583521,299.3699067462L11.715288150360966,300L14.088327732138412,300L16.231718322130945,300L18.601568334578044,300L20.898058252427184,300L23.27109783420463,300L25.56758775205377,300L27.94062733383122,300L30.313666915608668,300L32.6101568334578,300L34.9863859845656,300L37.28287590241474,300L39.655915484192185,299.831589347475L42.02895506596963,299.83113052485L44.17234565596216,300L46.54219566840926,300L48.83868558625841,300L51.21172516803585,300L53.50821508588499,300L55.88125466766244,300L58.25429424943988,300L60.550784167289024,300L62.92701331839681,300L65.22350323624596,300L67.5965428180234,300L69.96958239980084,300L72.11297298979338,299.925166131225L74.48282300224048,299.842135174425L76.77931292008962,300L79.15235250186707,299.84758266105L81.4488424197162,300L83.82188200149365,300L86.1949215832711,299.926094539875L88.49141150112024,299.628297005625L90.86764065222803,299.8616784855L93.16413057007718,299.927373436125L95.53717015185462,299.611066455825L97.91020973363206,299.75680342425L100.1301499875529,298.309770279075L102.5,298.48066944045L104.79648991784914,297.59067647835L107.16952949962658,297.118819868625L109.46601941747572,296.4922723698L111.83905899925318,295.30680016215L114.2120985810306,294.749697536925L116.50858849887976,294.81136194195L118.88481764998754,293.879799257475L121.18130756783668,293.1411109542L123.55434714961414,292.476422930475L125.92738673139159,290.821945747575L128.0707773213841,292.474727263275L130.4406273338312,291.627546254175L132.73711725168036,289.746226671975L135.1101568334578,288.256934455275L137.40664675130697,287.593618271325L139.77968633308438,287.39816474685L142.15272591486183,289.0110892245L144.449215832711,285.288332295225L146.82544498381878,284.834984063925L149.1219349016679,284.849498938275L151.49497448344536,281.929926493725L153.8680140652228,283.68175947615L156.01140465521533,280.865212519875L158.38125466766243,281.01600672225L160.6777445855116,280.293888672675L163.050784167289,278.538308266275L165.34727408513817,279.259014789L167.72031366691562,277.7920347432L170.09335324869303,277.781824804275L172.3898431665422,278.844551160675L174.76607231764999,276.754794040575L177.06256223549912,279.870079352775L179.4356018172766,278.0145416586L181.808641399054,275.90429923545L183.95203198904653,273.153205706175L186.32188200149363,271.901019417225L188.6183719193428,272.744727935475L190.99141150112024,269.119255431L193.2879014189694,266.717520268425L195.66094100074682,268.56245038005L198.03398058252426,265.913727445875L200.33047050037342,261.600843402825L202.70669965148122,262.228477438875L205.00318956933035,260.911937926575L207.37622915110782,261.87933885225L209.74926873288524,258.370355303925L211.96920898680605,258.130740140475L214.33905899925315,254.0853996186L216.6355489171023,248.90567324137498L219.0085884988798,247.272747183L221.3050784167289,237.172954126575L223.67811799850637,242.96720510145L226.05115758028379,242.075737151025L228.34764749813294,241.7988351126L230.72387664924074,235.073168763675L233.0203665670899,233.95298759655L235.3934061488673,234.163528194825L237.76644573064476,232.48814974575L239.90983632063728,225.477276143775L242.27968633308438,222.09763875697502L244.57617625093354,222.045863017275L246.94921583271096,215.83493445329998L249.24570575056012,212.50154541269998L251.6187453323376,208.904807730675L253.99178491411502,208.15754214315L256.28827483196415,203.305976531025L258.66450398307194,204.00251091052502L260.9609939009211,202.65834312375L263.33403348269854,196.768175859675L265.707073064476,190.557217281075L267.8504636544685,183.19204910850002L270.2203136669156,184.34407210889998L272.5168035847648,183.467992542L274.8898431665422,167.92780512105L277.1863330843913,158.2537136481L279.55937266616877,161.04355728495L281.9324122479463,167.274348836775L284.2289021657954,164.188638474525L286.60513131690317,153.01390093215L288.9016212347523,160.655108929125L291.2746608165297,157.29031557075L293.6477003983072,146.829558916275L295.79109098829974,145.043274500175L298.16094100074685,140.5394684649L300.45743091859595,140.11316099969997L302.8304705003734,138.5476946052L305.12696041822255,124.50869147775003L307.5,111.84367298917502L309.87303958177745,132.02313853462502L312.1695294996266,114.25536152985L314.5457586507344,121.47368708565L316.84224856858356,110.32020043087499L319.21528815036095,106.28604542069999L321.5883277321384,103.49733254302498L323.80826798605926,108.968269909875L326.17811799850637,101.09191430550001L328.4746079163555,97.27752549615005L330.8476474981329,85.78993821712498L333.1441374159821,88.65197690565L335.5171769977595,93.82742970855003L337.89021657953697,91.08948360562499L340.18670649738607,80.00798739135001L342.5629356484939,81.53704493910001L344.859425566343,92.4317720784L347.23246514812047,103.28455026150002L349.605504729898,83.45005528934999L351.7488953198905,73.48497708375001L354.1187453323376,78.81783995077504L356.4152352501867,79.3069374147L358.78827483196415,68.73800101875L361.0847647498133,65.42078905582503L363.45780433159075,68.017570854225L365.8308439133682,78.7815710301L368.1273338312173,70.54123514595L370.50356298232515,58.22009375054998L372.80005290017425,71.17593698639999L375.1730924819517,86.30008690590003L377.54613206372915,61.91739395714998L379.68952265372167,48.135011348625L382.05937266616877,66.24214443705L384.3558625840179,60.129724535625L386.7289021657954,78.58197493680004L389.0253920836445,79.277827335225L391.398431665422,72.36852731504999L393.77147124719943,80.61676116660001L396.06796116504853,78.86056971517499L398.4441903161564,79.11101989357502L400.7406802340055,95.59630269787499L403.11371981578293,110.63726067007502L405.4867593975604,122.56743042824999L407.6301499875529,129.513470044275L410,155.82057671775" data-legend="pandas" style="stroke: rgb(31, 119, 180); fill: none;"></path><path class="line" d="M2.3730395817774457,270.61810795125L4.669529499626587,264.497041420125L7.045758650734379,255.0539352777L9.342248568583521,248.332353188325L11.715288150360966,230.04982752015002L14.088327732138412,238.64500518495L16.231718322130945,225.764624369025L18.601568334578044,225.890736342075L20.898058252427184,215.227629513375L23.27109783420463,219.47893926929999L25.56758775205377,208.8480644859L27.94062733383122,213.72912801487502L30.313666915608668,205.11273128295L32.6101568334578,212.751864633225L34.9863859845656,211.7160198639L37.28287590241474,185.8102322595L39.655915484192185,187.670094759075L42.02895506596963,181.11588949185L44.17234565596216,205.987445678475L46.54219566840926,211.00388822857502L48.83868558625841,213.831583441725L51.21172516803585,207.15940350375L53.50821508588499,210.95856339854998L55.88125466766244,210.578567357025L58.25429424943988,211.068658289625L60.550784167289024,219.084777354825L62.92701331839681,210.25696675065L65.22350323624596,215.15296367115002L67.5965428180234,211.90482191925L69.96958239980084,207.95868772785002L72.11297298979338,214.764223424025L74.48282300224048,218.06815550745L76.77931292008962,208.732029815775L79.15235250186707,210.988274026125L81.4488424197162,216.074160741675L83.82188200149365,222.591178209225L86.1949215832711,224.5425252018L88.49141150112024,228.930387463275L90.86764065222803,224.06148852397502L93.16413057007718,228.027075183075L95.53717015185462,221.1113127804L97.91020973363206,227.588219557875L100.1301499875529,222.64381976894998L102.5,220.99481090182502L104.79648991784914,222.957678084525L107.16952949962658,226.068917828775L109.46601941747572,221.873339144175L111.83905899925318,213.81578479552502L114.2120985810306,221.6449425891L116.50858849887976,225.49518749625L118.88481764998754,229.1076747318L121.18130756783668,229.90549975095L123.55434714961414,228.406215656775L125.92738673139159,220.60489627815L128.0707773213841,223.48581072855L130.4406273338312,224.73604737929998L132.73711725168036,221.417984937L135.1101568334578,218.0849574195L137.40664675130697,221.711453229375L139.77968633308438,216.3131644806L142.15272591486183,228.731669949675L144.449215832711,229.023374750025L146.82544498381878,224.73182768430001L149.1219349016679,229.951749609075L151.49497448344536,223.96177033417501L153.8680140652228,231.391042920525L156.01140465521533,224.0428968468L158.38125466766243,229.62695934525L160.6777445855116,227.52959494425L163.050784167289,220.85710206645L165.34727408513817,223.650982422825L167.72031366691562,223.660119429525L170.09335324869303,225.514478237175L172.3898431665422,227.35463642355L174.76607231764999,224.736282458775L177.06256223549912,220.744515326025L179.4356018172766,218.567318896875L181.808641399054,224.52706017495L183.95203198904653,227.652861006525L186.32188200149363,230.19035135669998L188.6183719193428,222.05805779745L190.99141150112024,219.98348737965L193.2879014189694,215.4601821453L195.66094100074682,219.428266868025L198.03398058252426,217.716928098675L200.33047050037342,219.795637012425L202.70669965148122,222.80365591035002L205.00318956933035,214.90020566520002L207.37622915110782,214.82349535432502L209.74926873288524,219.109224626175L211.96920898680605,218.512515757275L214.33905899925315,223.09112163915L216.6355489171023,220.022797364475L219.0085884988798,222.18213077234998L221.3050784167289,218.29916173545L223.67811799850637,215.42982202769997L226.05115758028379,216.9546201075L228.34764749813294,220.58371116322502L230.72387664924074,223.272220076925L233.0203665670899,221.86381712834998L235.3934061488673,215.304122208975L237.76644573064476,207.36042072735L239.90983632063728,213.37625895682498L242.27968633308438,214.676346858525L244.57617625093354,208.89110240144998L246.94921583271096,211.62668117595L249.24570575056012,205.1257122948L251.6187453323376,200.06434603365L253.99178491411502,191.65861714395L256.28827483196415,206.6463965034L258.66450398307194,205.16829078735L260.9609939009211,198.1223366169L263.33403348269854,193.8848694162L265.707073064476,194.469425351175L267.8504636544685,200.51154633150003L270.2203136669156,196.42752726165L272.5168035847648,187.4051904639L274.8898431665422,184.000602934725L277.1863330843913,185.880212262825L279.55937266616877,183.84297361995002L281.9324122479463,187.0251897837L284.2289021657954,201.008396990025L286.60513131690317,196.301891393925L288.9016212347523,188.4435409635L291.2746608165297,185.30256626175L293.6477003983072,181.38123575505L295.79109098829974,179.57783740882502L298.16094100074685,174.752082507L300.45743091859595,177.872600021475L302.8304705003734,183.90890423745L305.12696041822255,178.037317290975L307.5,173.063858444325L309.87303958177745,171.403144467525L312.1695294996266,181.38237832815L314.5457586507344,175.5539471079L316.84224856858356,168.238133793675L319.21528815036095,168.063412345875L321.5883277321384,168.19624115212503L323.80826798605926,159.362547219375L326.17811799850637,161.382170006925L328.4746079163555,156.00526720785L330.8476474981329,159.796999117425L333.1441374159821,139.8560257254L335.5171769977595,147.95156256389998L337.89021657953697,159.95872843597502L340.18670649738607,159.489662746725L342.5629356484939,165.19415186295L344.859425566343,152.32680024435L347.23246514812047,149.44306394294998L349.605504729898,162.237375599025L351.7488953198905,166.8816839247L354.1187453323376,161.761149969225L356.4152352501867,149.4580262652L358.78827483196415,150.60533636332502L361.0847647498133,145.242457554675L363.45780433159075,146.627289422775L365.8308439133682,164.361500408775L368.1273338312173,173.15198860027502L370.50356298232515,170.860338788025L372.80005290017425,165.884983968225L375.1730924819517,153.1248154305L377.54613206372915,161.461124227425L379.68952265372167,180.290913824175L382.05937266616877,178.545974792025L384.3558625840179,173.278347213375L386.7289021657954,175.907967858525L389.0253920836445,160.51663006080003L391.398431665422,168.50896062615L393.77147124719943,167.341323955125L396.06796116504853,176.715488409675L398.4441903161564,177.84586515772503L400.7406802340055,176.255604819525L403.11371981578293,177.51937332952502L405.4867593975604,186.0409470519L407.6301499875529,191.30143412415L410,188.50771869645" data-legend="django" style="stroke: rgb(255, 127, 14); fill: none;"></path><path class="line" d="M2.3730395817774457,298.367672664L4.669529499626587,298.95579533595L7.045758650734379,298.20215741115L9.342248568583521,297.4796269848L11.715288150360966,296.64622460715L14.088327732138412,296.975458002075L16.231718322130945,298.5152924874L18.601568334578044,297.505938242325L20.898058252427184,297.9395604396L23.27109783420463,296.510754035025L25.56758775205377,298.59405754995L27.94062733383122,297.912801484275L30.313666915608668,298.161989952225L32.6101568334578,294.364354892625L34.9863859845656,292.314564229275L37.28287590241474,294.782189874825L39.655915484192185,296.463376296825L42.02895506596963,293.245220993925L44.17234565596216,294.35055528735L46.54219566840926,293.6539275138L48.83868558625841,295.633357269075L51.21172516803585,294.1635297525L53.50821508588499,295.5230562603L55.88125466766244,294.181075432275L58.25429424943988,294.81233840025L60.550784167289024,294.076484433075L62.92701331839681,292.837919958375L65.22350323624596,293.047105857825L67.5965428180234,295.17934111365L69.96958239980084,294.349939246725L72.11297298979338,291.39410508675L74.48282300224048,292.027826306625L76.77931292008962,293.002538147475L79.15235250186707,293.59847176215L81.4488424197162,292.874928749325L83.82188200149365,291.273914634525L86.1949215832711,291.1313447838L88.49141150112024,289.740997353525L90.86764065222803,292.59979897275L93.16413057007718,292.1563310997L95.53717015185462,290.795239453425L97.91020973363206,290.8801284078L100.1301499875529,290.647395543825L102.5,290.88401664255L104.79648991784914,290.362705913175L107.16952949962658,289.800622334925L109.46601941747572,289.157932779225L111.83905899925318,288.1603367727L114.2120985810306,286.87424384235L116.50858849887976,287.506968559275L118.88481764998754,285.7705332735L121.18130756783668,288.345464954625L123.55434714961414,287.732256498075L125.92738673139159,286.03554111045L128.0707773213841,285.732430880625L130.4406273338312,283.07883032415L132.73711725168036,283.5758144037L135.1101568334578,285.87013251525L137.40664675130697,282.24603994005L139.77968633308438,285.0020411424L142.15272591486183,282.0803239221L144.449215832711,281.5182113235L146.82544498381878,279.180232358925L149.1219349016679,281.60948214495L151.49497448344536,280.530695138175L153.8680140652228,277.65285287865L156.01140465521533,279.482851447125L158.38125466766243,280.35467908755L160.6777445855116,278.19018615622497L163.050784167289,279.8418383499L165.34727408513817,279.5150763348L167.72031366691562,278.393500468875L170.09335324869303,280.695683846325L172.3898431665422,277.27100537925L174.76607231764999,279.20165782575L177.06256223549912,279.57834137235L179.4356018172766,277.650393280275L181.808641399054,275.231234968275L183.95203198904653,274.34639656365L186.32188200149363,276.43824857655L188.6183719193428,274.575305909925L190.99141150112024,275.9146276083L193.2879014189694,274.87385386125L195.66094100074682,276.682082401125L198.03398058252426,277.3041526884L200.33047050037342,275.67107290575L202.70669965148122,271.809132993075L205.00318956933035,274.40871272325L207.37622915110782,271.399065842025L209.74926873288524,269.97205956345L211.96920898680605,269.723572843575L214.33905899925315,268.50581431125L216.6355489171023,272.43542966115L219.0085884988798,268.380074245275L221.3050784167289,266.2326027288L223.67811799850637,268.463239051725L226.05115758028379,266.31386238285L228.34764749813294,265.73606254215L230.72387664924074,263.86229632920003L233.0203665670899,265.03942594335L235.3934061488673,265.8387577938L237.76644573064476,259.778333929275L239.90983632063728,259.149671794425L242.27968633308438,256.7868774597L244.57617625093354,260.9011281696L246.94921583271096,259.277710710225L249.24570575056012,257.262315534L251.6187453323376,258.27472909185L253.99178491411502,257.60757797655L256.28827483196415,251.14079053642502L258.66450398307194,251.75464817362501L260.9609939009211,251.82448261725L263.33403348269854,252.732681254475L265.707073064476,249.98316264885L267.8504636544685,253.78544285302502L270.2203136669156,254.79201527775L272.5168035847648,256.690822859325L274.8898431665422,254.23922090355L277.1863330843913,250.21524259965L279.55937266616877,253.58518821922502L281.9324122479463,252.966664091775L284.2289021657954,252.707697556725L286.60513131690317,248.58280945155002L288.9016212347523,247.760049094875L291.2746608165297,253.39780112325L293.6477003983072,244.353615196575L295.79109098829974,242.88332892405L298.16094100074685,244.02023006745L300.45743091859595,249.117773249025L302.8304705003734,249.9346649244L305.12696041822255,246.21959325630002L307.5,242.99806848375L309.87303958177745,247.437703945425L312.1695294996266,240.442201713075L314.5457586507344,240.388804293675L316.84224856858356,240.99359904675L319.21528815036095,246.759706393725L321.5883277321384,237.81163917855L323.80826798605926,241.004192233725L326.17811799850637,237.429163787175L328.4746079163555,234.72889052662498L330.8476474981329,234.907325684025L333.1441374159821,234.31630490392502L335.5171769977595,240.2027993949L337.89021657953697,237.021592596825L340.18670649738607,230.6808537951L342.5629356484939,229.4248433535L344.859425566343,232.24339589917503L347.23246514812047,237.37178190645L349.605504729898,233.883155178825L351.7488953198905,231.20013580042502L354.1187453323376,232.02097596075L356.4152352501867,233.186745215775L358.78827483196415,235.58750930535L361.0847647498133,231.293514107775L363.45780433159075,240.62391423045L365.8308439133682,237.74281356135L368.1273338312173,227.86075981582502L370.50356298232515,230.512074188175L372.80005290017425,232.302565991025L375.1730924819517,237.541659987075L377.54613206372915,237.39554871742502L379.68952265372167,232.762786459875L382.05937266616877,231.933082891575L384.3558625840179,238.5009609225L386.7289021657954,237.007990859175L389.0253920836445,240.7434615414L391.398431665422,245.92788916875L393.77147124719943,246.76906146082501L396.06796116504853,243.20147618505L398.4441903161564,241.61670062895L400.7406802340055,244.32754690515L403.11371981578293,246.67081309155L405.4867593975604,249.3049801224L407.6301499875529,250.810883259675L410,252.10200977385" data-legend="numpy" style="stroke: rgb(44, 160, 44); fill: none;"></path><path class="line" d="M2.3730395817774457,298.911781776L4.669529499626587,300L7.045758650734379,300L9.342248568583521,298.7398134924L11.715288150360966,299.520889229625L14.088327732138412,298.703767715175L16.231718322130945,298.88646936555L18.601568334578044,297.505938242325L20.898058252427184,297.9395604396L23.27109783420463,299.4631929285L25.56758775205377,298.59405754995L27.94062733383122,296.9851576995L30.313666915608668,297.4727361843L32.6101568334578,297.912724034325L34.9863859845656,297.635250532125L37.28287590241474,297.79246494705L39.655915484192185,297.30542955945L42.02895506596963,295.778263121175L44.17234565596216,295.219700627775L46.54219566840926,296.67586679295L48.83868558625841,297.23445960375L51.21172516803585,296.1995077458L53.50821508588499,296.5179326469L55.88125466766244,295.8436253088L58.25429424943988,296.418043181175L60.550784167289024,295.853539103175L62.92701331839681,295.87637815785L65.22350323624596,297.501303667725L67.5965428180234,296.219091069525L69.96958239980084,294.80558930745L72.11297298979338,294.387459839175L74.48282300224048,295.421920057275L76.77931292008962,295.0340593305L79.15235250186707,295.19885382165L81.4488424197162,295.649956499625L83.82188200149365,294.7924974432L86.1949215832711,295.491766931775L88.49141150112024,293.9040708912L90.86764065222803,294.259657147125L93.16413057007718,293.173102994175L95.53717015185462,294.29564135145L97.91020973363206,292.7649018702L100.1301499875529,294.14053696725L102.5,293.572063017225L104.79648991784914,293.10821411235L107.16952949962658,292.7970496716L109.46601941747572,292.02789174945L111.83905899925318,291.25358212035L114.2120985810306,293.437121921175L116.50858849887976,291.133977687225L118.88481764998754,291.17671059615L121.18130756783668,291.133631233425L123.55434714961414,290.17622102385L125.92738673139159,289.0455481503L128.0707773213841,290.1257982009L130.4406273338312,289.600531136775L132.73711725168036,289.111037173725L135.1101568334578,290.30958412365L137.40664675130697,288.620353311L139.77968633308438,289.616797713975L142.15272591486183,287.597577879975L144.449215832711,287.337311084175L146.82544498381878,286.3771890744L149.1219349016679,288.774026321775L151.49497448344536,286.52740094775L153.8680140652228,285.530624166075L156.01140465521533,285.412452890625L158.38125466766243,286.5011359275L160.6777445855116,286.5191308131L163.050784167289,287.290581684825L165.34727408513817,283.953476462325L167.72031366691562,284.917090263075L170.09335324869303,287.934802404L172.3898431665422,288.4606642695L174.76607231764999,284.729757488625L177.06256223549912,286.434183911625L179.4356018172766,286.845139833L181.808641399054,285.59642468265L183.95203198904653,285.085114281225L186.32188200149363,285.711708173925L188.6183719193428,284.012952356175L190.99141150112024,284.921511440925L193.2879014189694,280.053705526725L195.66094100074682,284.3020447593L198.03398058252426,284.5294224318L200.33047050037342,284.470034871525L202.70669965148122,278.888643955725L205.00318956933035,283.348134991125L207.37622915110782,280.54301413485L209.74926873288524,281.2526093799L211.96920898680605,280.115853292575L214.33905899925315,279.811419430275L216.6355489171023,280.704800762775L219.0085884988798,279.63184003335L221.3050784167289,278.9435241351L223.67811799850637,280.128091185825L226.05115758028379,281.236424000925L228.34764749813294,280.5564037125L230.72387664924074,280.24529835225L233.0203665670899,282.02961146625L235.3934061488673,281.0548694415L237.76644573064476,276.8617297335L239.90983632063728,275.271834444075L242.27968633308438,270.95094314025L244.57617625093354,274.908512158725L246.94921583271096,273.220206417L249.24570575056012,273.40485315772503L251.6187453323376,277.19417127435L253.99178491411502,277.9391144487L256.28827483196415,274.74642500835L258.66450398307194,272.0661206433L260.9609939009211,272.94037497659997L263.33403348269854,272.963093677575L265.707073064476,274.199235386175L267.8504636544685,273.9549839229L270.2203136669156,273.40706781045L272.5168035847648,274.295075636475L274.8898431665422,269.918800422075L277.1863330843913,268.949907753225L279.55937266616877,270.2407618365L281.9324122479463,269.030681395275L284.2289021657954,269.672270978325L286.60513131690317,265.146054628275L288.9016212347523,265.365142681875L291.2746608165297,271.1219161059L293.6477003983072,268.202065826625L295.79109098829974,266.26856646135L298.16094100074685,265.8369694566L300.45743091859595,264.8047838679L302.8304705003734,268.30315475085L305.12696041822255,267.620972344425L307.5,263.700814789125L309.87303958177745,269.63067339075L312.1695294996266,264.693579443625L314.5457586507344,264.20255515575L316.84224856858356,264.481583892225L319.21528815036095,263.782113192975L321.5883277321384,262.9171170543L323.80826798605926,256.6035779775L326.17811799850637,255.881133379425L328.4746079163555,252.20496591495L330.8476474981329,255.29567519865L333.1441374159821,254.77965358477502L335.5171769977595,260.39074318897497L337.89021657953697,254.854764080925L340.18670649738607,254.53605380085L342.5629356484939,252.50072989425001L344.859425566343,256.393704706425L347.23246514812047,257.742205784625L349.605504729898,254.96221894582501L351.7488953198905,257.732133763425L354.1187453323376,253.048857373875L356.4152352501867,262.152356096025L358.78827483196415,264.6201465345L361.0847647498133,260.36399169419997L363.45780433159075,258.6787114707L365.8308439133682,265.932361938675L368.1273338312173,266.4113590677L370.50356298232515,262.178261384625L372.80005290017425,261.06555536595L375.1730924819517,260.38609843155L377.54613206372915,263.458630660275L379.68952265372167,256.802225783625L382.05937266616877,257.737948952025L384.3558625840179,262.28379244079997L386.7289021657954,263.0506236135L389.0253920836445,262.275960810525L391.398431665422,262.612053712425L393.77147124719943,263.0972032824L396.06796116504853,261.94210587015L398.4441903161564,261.517599284625L400.7406802340055,257.729014804275L403.11371981578293,262.17788162520003L405.4867593975604,261.105886953375L407.6301499875529,263.610776035425L410,265.371047606775" data-legend="matplotlib" style="stroke: rgb(214, 39, 40); fill: none;"></path><path class="line" d="M2.3730395817774457,300L4.669529499626587,300L7.045758650734379,300L9.342248568583521,300L11.715288150360966,300L14.088327732138412,300L16.231718322130945,300L18.601568334578044,300L20.898058252427184,300L23.27109783420463,300L25.56758775205377,300L27.94062733383122,300L30.313666915608668,300L32.6101568334578,300L34.9863859845656,300L37.28287590241474,300L39.655915484192185,299.831589347475L42.02895506596963,300L44.17234565596216,300L46.54219566840926,300L48.83868558625841,300L51.21172516803585,300L53.50821508588499,300L55.88125466766244,300L58.25429424943988,300L60.550784167289024,300L62.92701331839681,300L65.22350323624596,300L67.5965428180234,299.9054772768L69.96958239980084,300L72.11297298979338,300L74.48282300224048,299.92106758725L76.77931292008962,300L79.15235250186707,300L81.4488424197162,299.92499925L83.82188200149365,300L86.1949215832711,299.926094539875L88.49141150112024,300L90.86764065222803,299.723356971L93.16413057007718,299.85474687225L95.53717015185462,299.9351777427L97.91020973363206,299.696004280275L100.1301499875529,299.71829504655L102.5,299.5909494648L104.79648991784914,299.663815322625L107.16952949962658,299.135645960625L109.46601941747572,299.521673505L111.83905899925318,298.880031856875L114.2120985810306,298.744492889325L116.50858849887976,299.042872591275L118.88481764998754,298.928964870075L121.18130756783668,299.10778679085L123.55434714961414,298.1310859509L125.92738673139159,298.2236024028L128.0707773213841,298.434047291775L130.4406273338312,298.0611159747L132.73711725168036,297.8675781132L135.1101568334578,298.04282240925L137.40664675130697,297.860968667475L139.77968633308438,298.091975648325L142.15272591486183,298.2217115343L144.449215832711,297.7051437564L146.82544498381878,296.87275095105L149.1219349016679,295.892936459175L151.49497448344536,296.0421741657L153.8680140652228,297.0659321226L156.01140465521533,296.398585626375L158.38125466766243,295.68191956185L160.6777445855116,296.4365855334L163.050784167289,295.810081874175L165.34727408513817,295.646953721175L167.72031366691562,295.789739920125L170.09335324869303,296.9950828629L172.3898431665422,296.10984515145L174.76607231764999,296.1031428606L177.06256223549912,295.13770032675L179.4356018172766,295.03847834535L181.808641399054,295.512904885575L183.95203198904653,295.147690512825L186.32188200149363,294.0697618884L188.6183719193428,293.450598802425L190.99141150112024,294.089232484875L193.2879014189694,293.776446879525L195.66094100074682,293.5042943832L198.03398058252426,294.729803246025L200.33047050037342,294.07996107375L202.70669965148122,292.3693893816L205.00318956933035,292.3751986539L207.37622915110782,292.400919683625L209.74926873288524,292.29229336395L211.96920898680605,292.23392760675L214.33905899925315,291.8476588938L216.6355489171023,291.1313991084L219.0085884988798,291.0068003373L221.3050784167289,290.456109516525L223.67811799850637,290.626458106575L226.05115758028379,291.96477451335L228.34764749813294,290.53744980675L230.72387664924074,289.106816596875L233.0203665670899,289.824559219875L235.3934061488673,290.013087284775L237.76644573064476,289.966208034L239.90983632063728,289.4397955605L242.27968633308438,288.4651920207L244.57617625093354,290.01212619915L246.94921583271096,288.7354836516L249.24570575056012,285.922695649275L251.6187453323376,287.358566848725L253.99178491411502,288.315208924125L256.28827483196415,287.70725450145L258.66450398307194,287.579960542875L260.9609939009211,286.6005325029L263.33403348269854,288.7976454573L265.707073064476,285.093992036925L267.8504636544685,284.6536100556L270.2203136669156,284.4641290893L272.5168035847648,287.0117723727L274.8898431665422,285.450923079975L277.1863330843913,285.164427594225L279.55937266616877,284.59239443475L281.9324122479463,286.780103792925L284.2289021657954,285.073070872125L286.60513131690317,285.7738998483L288.9016212347523,283.603099110225L291.2746608165297,285.1280414514L293.6477003983072,283.3736291904L295.79109098829974,285.07124229945L298.16094100074685,283.042443474825L300.45743091859595,282.352113053775L302.8304705003734,283.8715699086L305.12696041822255,283.483170962625L307.5,282.73846085535L309.87303958177745,284.3147433996L312.1695294996266,282.67047340815L314.5457586507344,282.5365827012L316.84224856858356,277.2567561375L319.21528815036095,283.13281271565L321.5883277321384,283.210711670625L323.80826798605926,282.894131520825L326.17811799850637,283.331029716675L328.4746079163555,281.589157788675L330.8476474981329,280.6266548985L333.1441374159821,282.094569904275L335.5171769977595,283.798536246375L337.89021657953697,284.3089512168L340.18670649738607,282.884161430925L342.5629356484939,284.559929930175L344.859425566343,283.145686125225L347.23246514812047,285.1555953654L349.605504729898,282.8372650203L351.7488953198905,284.4678322866L354.1187453323376,283.86749838675L356.4152352501867,283.9897111737L358.78827483196415,285.131058261225L361.0847647498133,284.06009527305L363.45780433159075,284.55104978415L365.8308439133682,285.5259942189L368.1273338312173,288.358482404175L370.50356298232515,283.11982806765L372.80005290017425,284.776497426825L375.1730924819517,286.078181557425L377.54613206372915,288.526938483225L379.68952265372167,286.271893787175L382.05937266616877,288.216655548975L384.3558625840179,283.5442024344L386.7289021657954,281.859191713875L389.0253920836445,285.776181945L391.398431665422,286.013934672975L393.77147124719943,286.662360343575L396.06796116504853,288.063660477525L398.4441903161564,284.7169894302L400.7406802340055,284.59457428425L403.11371981578293,286.510111113L405.4867593975604,287.9896096158L407.6301499875529,288.5404101327L410,287.620958607075" data-legend="scikit-learn" style="stroke: rgb(148, 103, 189); fill: none;"></path></g></g><g transform="translate(20, 150)"><text transform="rotate(-90)" x="-50" y="0" dy="1em" class="axis-label y-axis-label" style="text-anchor: middle; font-weight: bold;">% of Stack Overflow questions that month</text></g><g class="legend" transform="translate(530, 30)" style="font-size: 12px;"><text class="legend-title" style="font-weight: bold;">Tag</text><g class="legend-items" transform="translate(0,20)"><text y="0em" x="1em">pandas</text><text y="1em" x="1em">django</text><text y="2em" x="1em">numpy</text><text y="3em" x="1em">matplotlib</text><text y="4em" x="1em">scikit-learn</text><circle cy="-0.25em" cx="0" r="0.4em" style="fill: rgb(31, 119, 180);"></circle><circle cy="0.75em" cx="0" r="0.4em" style="fill: rgb(255, 127, 14);"></circle><circle cy="1.75em" cx="0" r="0.4em" style="fill: rgb(44, 160, 44);"></circle><circle cy="2.75em" cx="0" r="0.4em" style="fill: rgb(214, 39, 40);"></circle><circle cy="3.75em" cx="0" r="0.4em" style="fill: rgb(148, 103, 189);"></circle></g><rect class="legend-box"></rect></g></svg>
        